<svg xmlns="http://www.w3.org/2000/svg" style="display: none;"><symbol id="trash" viewBox="0 0 774.266 774.266"><title>trash</title><path d="M640.35,91.169H536.971V23.991C536.971,10.469,526.064,0,512.543,0c-1.312,0-2.187,0.438-2.614,0.875 C509.491,0.438,508.616,0,508.179,0H265.212h-1.74h-1.75c-13.521,0-23.99,10.469-23.99,23.991v67.179H133.916 c-29.667,0-52.783,23.116-52.783,52.783v38.387v47.981h45.803v491.6c0,29.668,22.679,52.346,52.346,52.346h415.703 c29.667,0,52.782-22.678,52.782-52.346v-491.6h45.366v-47.981v-38.387C693.133,114.286,670.008,91.169,640.35,91.169z M285.713,47.981h202.84v43.188h-202.84V47.981z M599.349,721.922c0,3.061-1.312,4.363-4.364,4.363H179.282 c-3.052,0-4.364-1.303-4.364-4.363V230.32h424.431V721.922z M644.715,182.339H129.551v-38.387c0-3.053,1.312-4.802,4.364-4.802 H640.35c3.053,0,4.365,1.749,4.365,4.802V182.339z"/><rect x="475.031" y="286.593" width="48.418" height="396.942"/><rect x="363.361" y="286.593" width="48.418" height="396.942"/><rect x="251.69" y="286.593" width="48.418" height="396.942"/></symbol><symbol id="supermarket" viewBox="0 -31 512.00026 512"><title>supermarket</title><path d="m164.960938 300.003906h.023437c.019531 0 .039063-.003906.058594-.003906h271.957031c6.695312 0 12.582031-4.441406 14.421875-10.878906l60-210c1.292969-4.527344.386719-9.394532-2.445313-13.152344-2.835937-3.757812-7.269531-5.96875-11.976562-5.96875h-366.632812l-10.722657-48.253906c-1.527343-6.863282-7.613281-11.746094-14.644531-11.746094h-90c-8.285156 0-15 6.714844-15 15s6.714844 15 15 15h77.96875c1.898438 8.550781 51.3125 230.917969 54.15625 243.710938-15.941406 6.929687-27.125 22.824218-27.125 41.289062 0 24.8125 20.1875 45 45 45h272c8.285156 0 15-6.714844 15-15s-6.714844-15-15-15h-272c-8.269531 0-15-6.730469-15-15 0-8.257812 6.707031-14.976562 14.960938-14.996094zm312.152343-210.003906-51.429687 180h-248.652344l-40-180zm0 0"/><path d="m150 405c0 24.8125 20.1875 45 45 45s45-20.1875 45-45-20.1875-45-45-45-45 20.1875-45 45zm45-15c8.269531 0 15 6.730469 15 15s-6.730469 15-15 15-15-6.730469-15-15 6.730469-15 15-15zm0 0"/><path d="m362 405c0 24.8125 20.1875 45 45 45s45-20.1875 45-45-20.1875-45-45-45-45 20.1875-45 45zm45-15c8.269531 0 15 6.730469 15 15s-6.730469 15-15 15-15-6.730469-15-15 6.730469-15 15-15zm0 0"/></symbol></svg>