<svg xmlns="http://www.w3.org/2000/svg" style="display: none;"><symbol id="arrow-1" viewBox="0 0 451.847 451.847"><title>arrow-1</title><path d="M97.141,225.92c0-8.095,3.091-16.192,9.259-22.366L300.689,9.27c12.359-12.359,32.397-12.359,44.751,0 c12.354,12.354,12.354,32.388,0,44.748L173.525,225.92l171.903,171.909c12.354,12.354,12.354,32.391,0,44.744 c-12.354,12.365-32.386,12.365-44.745,0l-194.29-194.281C100.226,242.115,97.141,234.018,97.141,225.92z"/></symbol><symbol id="chevron" viewBox="0 0 238.003 238.003"><title>chevron</title><path style="fill:#010002;" d="M181.776,107.719L78.705,4.648c-6.198-6.198-16.273-6.198-22.47,0s-6.198,16.273,0,22.47 l91.883,91.883l-91.883,91.883c-6.198,6.198-6.198,16.273,0,22.47s16.273,6.198,22.47,0l103.071-103.039 c3.146-3.146,4.672-7.246,4.64-11.283C186.416,114.902,184.89,110.833,181.776,107.719z"/></symbol><symbol id="right-arrow" viewBox="0 0 309.143 309.143"><title>right-arrow</title><path style="fill:#231F20;" d="M240.481,149.268L93.41,2.197c-2.929-2.929-7.678-2.929-10.606,0L68.661,16.34 c-1.407,1.406-2.197,3.314-2.197,5.303c0,1.989,0.79,3.897,2.197,5.303l127.626,127.625L68.661,282.197 c-1.407,1.406-2.197,3.314-2.197,5.303c0,1.989,0.79,3.897,2.197,5.303l14.143,14.143c1.464,1.464,3.384,2.197,5.303,2.197 c1.919,0,3.839-0.732,5.303-2.197l147.071-147.071C243.411,156.946,243.411,152.197,240.481,149.268z"/></symbol><symbol id="arrow" viewBox="0 0 512 512"><title>arrow</title><path d="M425.167,240.958c-2.938-14.313-9.979-27.375-20.583-37.969L212.792,21.865C198.687,7.76,179.937,0,160,0 c-41.167,0-74.667,33.5-74.667,74.667c0,19.958,7.771,38.708,22.083,53.01L243.292,256L107.208,384.531 c-14.104,14.104-21.875,32.854-21.875,52.802C85.333,478.5,118.833,512,160,512c19.896,0,38.583-7.729,52.688-21.76 l192.104-181.438c10.396-10.385,17.438-23.438,20.375-37.76c1-4.885,1.5-9.948,1.5-15.042 C426.667,251.031,426.167,245.99,425.167,240.958z M404.25,266.75c-2.083,10.219-7.125,19.542-14.333,26.75l-192,181.333 c-0.063,0.063-0.146,0.135-0.208,0.208c-10.083,10.073-23.479,15.625-37.708,15.625c-29.417,0-53.333-23.927-53.333-53.333 c0-14.25,5.542-27.646,15.417-37.51L266.167,263.75c2.125-2.01,3.333-4.813,3.333-7.75s-1.208-5.74-3.333-7.75L122.292,112.385 c-10.083-10.073-15.625-23.458-15.625-37.719c0-29.406,23.917-53.333,53.333-53.333c14.229,0,27.625,5.552,37.917,15.823 l191.792,181.125c7.417,7.427,12.458,16.75,14.542,26.917c0.688,3.49,1.083,7.104,1.083,10.802 C405.333,259.656,404.979,263.281,404.25,266.75z"/></symbol><symbol id="avatar" viewBox="0 0 128 128"><title>avatar</title><path d="M118.95,92.012c-3.778-3.777-10.1-7.074-20.066-12.059c-5.024-2.512-13.386-6.691-15.413-8.605 c8.489-10.434,13.416-22.219,13.416-32.535c0-7,0-15.711-3.918-23.48C89.437,8.336,81.544,0,64.002,0 C46.456,0,38.563,8.336,35.035,15.332c-3.923,7.77-3.923,16.48-3.923,23.48c0,10.32,4.923,22.102,13.417,32.535 c-2.032,1.918-10.393,6.098-15.417,8.605c-9.963,4.984-16.285,8.281-20.066,12.059c-8.369,8.375-9.002,22.426-9.045,25.16 c-0.043,2.852,1.059,5.609,3.067,7.648c2,2.031,4.743,3.18,7.595,3.18h106.669c2.86,0,5.596-1.148,7.6-3.18 c2.004-2.039,3.11-4.797,3.067-7.652C127.956,114.438,127.318,100.387,118.95,92.012z M119.235,119.203 c-0.508,0.512-1.184,0.797-1.903,0.797H10.663c-0.707,0-1.398-0.289-1.895-0.797c-0.496-0.504-0.777-1.199-0.77-1.91 c0.023-1.34,0.391-13.305,6.705-19.621c2.915-2.914,9.017-6.074,17.988-10.563c9.576-4.785,14.886-7.637,17.332-9.949l5.399-5.105 l-4.688-5.758c-7.384-9.07-11.623-19.09-11.623-27.484c0-6.473,0-13.805,3.063-19.875C45.842,11.68,53.179,8,64.002,8 c10.814,0,18.159,3.68,21.824,10.934c3.063,6.074,3.063,13.406,3.063,19.879c0,8.391-4.235,18.41-11.628,27.484l-4.688,5.762 l5.4,5.102c2.445,2.309,7.751,5.16,17.331,9.949c8.971,4.484,15.073,7.645,17.988,10.563c5.138,5.137,6.634,14.75,6.704,19.621 C120.009,118.004,119.731,118.699,119.235,119.203z"/></symbol><symbol id="user-1" viewBox="0 0 316.824 316.824"><title>user-1</title><path d="M213.31,185.877l-0.81-0.366c-1.934-0.88-3.882-1.71-5.868-2.487c-2.166-0.868-4.364-1.671-6.594-2.423 c-1.761-0.578-3.535-1.118-5.328-1.645c-2.731-0.79-5.489-1.504-8.329-2.134c-0.964-0.199-1.947-0.392-2.924-0.566l-0.668-0.129 c-1.677-0.328-3.361-0.617-5.064-0.868l-0.488-0.077c-0.019,0-0.032-0.013-0.051-0.013l-0.488-0.064 c-1.414-0.212-2.821-0.411-4.287-0.578l-4.987-0.411c-6.131-0.405-12.449-0.392-18.509,0.051l-1.767,0.148l-0.823,0.064 l-2.063,0.186c-1.896,0.199-3.779,0.463-5.662,0.765l-0.553,0.077c-1.285,0.212-2.571,0.45-3.837,0.688 c-1.407,0.251-2.796,0.527-4.184,0.829c-2.686,0.604-5.354,1.292-7.937,2.044c-2.057,0.591-4.087,1.24-5.996,1.896l-1.324,0.476 c-4.049,1.433-8.072,3.078-11.967,4.884l-1.041,0.495l-0.019,0.026c-45.547,21.8-74.918,68.247-74.918,118.646 c0,1.157,0.077,2.294,0.148,3.438l0.341,7.995H289.5l0.353-7.905c0.077-1.17,0.148-2.333,0.148-3.528 C290.001,254.188,259.917,207.33,213.31,185.877z M39.682,303.97c0.553-45.251,27.308-86.762,68.086-105.882l1.311-0.514 l0.154-0.148c3.194-1.459,6.491-2.789,9.833-3.965l1.06-0.379c1.819-0.63,3.631-1.208,5.514-1.742 c2.346-0.688,4.737-1.305,7.134-1.844c1.24-0.263,2.481-0.514,3.76-0.752c1.015-0.186,2.024-0.379,3.046-0.54l0.501-0.09 c1.838-0.289,3.683-0.553,5.521-0.752l4.203-0.366c5.501-0.405,10.765-0.463,17.14,0l4.087,0.341 c1.009,0.116,2.018,0.251,3.246,0.424l1.472,0.212c1.536,0.225,3.072,0.488,4.614,0.778l0.72,0.135 c0.868,0.161,1.729,0.328,2.545,0.501c2.532,0.553,5.019,1.208,7.487,1.922c1.632,0.476,3.252,0.964,4.833,1.491 c2.005,0.668,3.985,1.395,5.945,2.172c1.883,0.739,3.74,1.53,5.578,2.372l0.321,0.148c41.704,19.133,68.786,60.779,69.339,106.467 H39.682V303.97z M126.644,157.599c0.964,0.405,1.96,0.758,2.956,1.112l2.089,0.758c0.803,0.308,1.613,0.611,2.436,0.868 c7.661,2.41,15.675,3.65,23.824,3.715l0.649,0.013c2.796,0,5.598-0.148,8.284-0.424c0.925-0.09,1.825-0.238,2.731-0.392 l2.012-0.302c1.131-0.148,2.262-0.315,3.445-0.546c0.81-0.167,1.594-0.379,2.378-0.591l2.198-0.559 c1.086-0.263,2.172-0.527,3.246-0.861c0.668-0.212,1.324-0.456,1.973-0.701l1.767-0.636c1.26-0.437,2.532-0.887,3.805-1.42 c0.495-0.212,0.977-0.443,1.452-0.675l0.572-0.283c1.742-0.778,3.477-1.575,5.199-2.5l1.118-0.668 c1.928-1.093,3.85-2.224,5.797-3.554c1.009-0.681,1.973-1.446,2.924-2.204l3.291-2.558c18.921-15.662,29.795-38.645,29.795-62.482 l0.039-0.681c0-45.232-36.8-82.026-82.032-82.026c-43.175,0-79.095,33.76-81.775,76.859l-0.071,1.067 c-0.103,1.356-0.186,2.712-0.186,4.1C76.547,115.066,96.207,144.726,126.644,157.599z M89.561,78.819l0.077-1.157 c2.262-36.344,32.545-64.808,68.947-64.808c38.15,0,69.178,31.029,69.211,68.587l-0.039,0.675 c-0.026,20.579-9.203,39.956-25.238,53.266l-3.053,2.327c-0.681,0.553-1.369,1.105-2.224,1.697 c-1.542,1.048-3.175,1.992-4.833,2.931l-0.919,0.559c-1.388,0.746-2.847,1.407-4.364,2.082l-1.703,0.823 c-0.977,0.405-2.005,0.758-3.021,1.112l-2.121,0.765c-0.411,0.154-0.829,0.321-1.234,0.443c-0.79,0.244-1.6,0.431-2.404,0.63 l-2.564,0.656c-0.553,0.148-1.099,0.302-1.587,0.405c-0.855,0.167-1.729,0.283-2.596,0.405l-2.442,0.366 c-0.591,0.103-1.183,0.206-1.845,0.27c-2.14,0.225-4.293,0.347-6.478,0.366l-0.604-0.006h-0.013 c-7.037-0.006-13.946-1.054-20.553-3.123c-0.572-0.18-1.131-0.405-1.69-0.617l-2.416-0.88c-0.752-0.264-1.497-0.521-2.217-0.823 C105.982,134.919,89.4,109.892,89.4,82.032C89.4,80.946,89.484,79.879,89.561,78.819z"/></symbol><symbol id="person" viewBox="0 0 513.32 513.32"><title>person</title><path d="M346.491,316.547c49.193-29.944,81.275-83.414,81.275-145.44C427.767,76.998,350.768,0,256.66,0 S85.553,76.998,85.553,171.107c0,62.026,32.082,115.497,81.275,145.44C81.275,348.63,17.11,423.489,0,513.32h42.777 c21.388-98.386,109.081-171.107,213.883-171.107s192.495,72.72,213.883,171.107h42.777 C496.21,421.35,432.045,346.491,346.491,316.547z M128.33,171.107c0-70.581,57.749-128.33,128.33-128.33 s128.33,57.749,128.33,128.33s-57.749,128.33-128.33,128.33S128.33,241.688,128.33,171.107z"/></symbol><symbol id="user" viewBox="0 0 490 490"><title>user</title><path style="fill:#2C2F33;" d="M121.4,291.5C152.7,323.8,196.5,344,245,344c94.8,0,172-77.2,172-172S339.8,0,245,0S73,77.2,73,172 c0,45.2,17.6,86.4,46.2,117.1C119.8,290.1,120.6,290.8,121.4,291.5z M245,324.2c-37.4,0-71.8-13.6-98.3-36.1 c44.6-14.8,61.1-32.8,67.2-44.8c8.5,3.7,18,5.7,28.5,5.8c0.2,0,0.5,0,0.7,0c0.1,0,0.7,0,0.9,0s0.5,0,0.7,0 c11.4-0.2,21.7-2.5,30.6-6.8c5.7,12,21.9,30.6,67.8,45.8C316.7,310.6,282.4,324.2,245,324.2z M189.4,140.2c0-0.2,0-0.4,0-0.6 c2.4-52.1,40.8-56.2,52.6-56.2c0.5,0,0.9,0,1.2,0s0.5,0,0.8,0s0.6,0,1.2,0c11.7,0,50.2,4.1,52.6,56.2c0,0.2,0,0.4,0,0.6 c0.1,0.5,5,48.7-17.5,74c-8.9,10-20.8,15-36.3,15.1c-0.1,0-0.3,0-0.3,0l0,0c-0.1,0-0.2,0-0.3,0c-15.6-0.2-27.4-5.1-36.3-15.1 C184.5,189.1,189.3,140.7,189.4,140.2z M245,19.8c83.9,0,152.2,68.3,152.2,152.2c0,38.4-14.4,73.6-37.9,100.4 c-64.6-18.8-67.1-41.6-67.1-41.9c0,0.4,0,0.5,0,0.5h-0.7c1.2-1.2,2.4-2.4,3.6-3.7c27.5-30.9,22.9-83.8,22.4-89 c-2.7-55.2-40.6-74.8-72.3-74.8c-0.6,0-1.2,0-1.6,0c-0.4,0-0.9,0-1.6,0c-31.7,0-69.7,19.6-72.3,74.8c-0.5,5.1-5,58,22.4,89 c1.6,1.8,3.3,3.5,5,5.1c-2.1,5.8-12.7,24.2-66.4,39.9c-23.6-26.8-37.9-61.9-37.9-100.3C92.8,88.1,161.1,19.8,245,19.8z"/><path style="fill:#3C92CA;" d="M119.4,420.5h251.1c5.5,0,9.9-4.4,9.9-9.9s-4.4-9.9-9.9-9.9H119.4c-5.5,0-9.9,4.4-9.9,9.9 C109.5,416,114,420.5,119.4,420.5z"/><path style="fill:#3C92CA;" d="M336.3,480.1c0-5.5-4.4-9.9-9.9-9.9H163.6c-5.5,0-9.9,4.4-9.9,9.9s4.4,9.9,9.9,9.9h162.9 C331.9,490,336.3,485.5,336.3,480.1z"/></symbol><symbol id="take-away" viewBox="0 0 512 512"><title>take-away</title><g> <g> <path d="M511.952,212.969c-0.007-0.061-0.02-0.122-0.028-0.184c-0.03-0.223-0.068-0.443-0.117-0.66 c-0.017-0.074-0.038-0.148-0.057-0.222c-0.055-0.21-0.117-0.416-0.189-0.618c-0.014-0.039-0.022-0.08-0.036-0.119l-27.704-73.94 v-24.968c0-4.14-3.364-7.496-7.512-7.496c-4.149,0-7.512,3.356-7.512,7.496v18.827H43.204V62.717 c0-17.695,14.427-32.091,32.159-32.091h361.272c16.681,0,30.764,12.98,32.06,29.55c0.323,4.128,3.946,7.219,8.074,6.89 c4.137-0.322,7.228-3.929,6.905-8.057c-1.903-24.323-22.565-43.376-47.039-43.376H75.364c-26.017,0-47.184,21.122-47.184,47.084 v74.51l-27.704,73.94c-0.015,0.039-0.023,0.08-0.036,0.119c-0.072,0.202-0.135,0.407-0.189,0.617 c-0.02,0.075-0.041,0.149-0.058,0.224c-0.049,0.216-0.087,0.436-0.117,0.659c-0.008,0.062-0.021,0.122-0.028,0.184 C0.018,213.24,0,213.514,0,213.792v0.035c0,0.001,0,0.001,0,0.002v265.045c0,9.645,7.864,17.492,17.529,17.492h476.942 c9.665,0,17.529-7.847,17.529-17.492V213.792C512,213.514,511.982,213.24,511.952,212.969z M496.975,478.875 c0,1.378-1.124,2.499-2.504,2.499H17.529c-1.381,0-2.504-1.121-2.504-2.499V221.289h190.892c4.149,0,7.512-3.356,7.512-7.496 c0-4.14-3.364-7.496-7.512-7.496H18.341l22.562-60.218h430.192l22.562,60.218H260.341c-4.149,0-7.512,3.356-7.512,7.496 c0,4.14,3.363,7.496,7.512,7.496h236.634V478.875z"/> </g> </g><g> <g> <path d="M325.885,44.526H179.002c-20.023,0-36.314,16.256-36.314,36.236v0.186c0,19.981,16.29,36.236,36.314,36.236h146.883 c20.023,0,36.314-16.255,36.314-36.236v-0.186C362.199,60.781,345.909,44.526,325.885,44.526z M347.174,80.949 c0,11.714-9.55,21.243-21.289,21.243H179.002c-11.739,0-21.289-9.53-21.289-21.243v-0.186c0-11.714,9.55-21.244,21.289-21.244 h146.883c11.739,0,21.289,9.53,21.289,21.244V80.949z"/> </g> </g><g> <g> <path d="M397.189,247.271H114.81c-4.149,0-7.512,3.356-7.512,7.496s3.364,7.496,7.512,7.496h282.379 c4.149,0,7.512-3.356,7.512-7.496S401.338,247.271,397.189,247.271z"/> </g> </g></symbol><symbol id="food-2" viewBox="0 0 512 512"><title>food-2</title><path d="M510.454,501.419L399.563,6.665c-0.06-0.256-0.23-0.444-0.316-0.7c-0.135-0.443-0.306-0.874-0.512-1.289 c-0.145-0.273-0.247-0.546-0.418-0.853c-0.207-0.298-0.432-0.583-0.674-0.853c-0.261-0.323-0.546-0.625-0.853-0.905 c-0.215-0.213-0.443-0.412-0.683-0.597c-0.309-0.187-0.628-0.358-0.956-0.512c-0.399-0.202-0.812-0.373-1.237-0.512 c-0.23-0.068-0.393-0.23-0.631-0.29c-0.077,0-0.145,0-0.213,0c-0.351-0.05-0.704-0.078-1.058-0.085 C391.713,0.128,391.491,0,391.235,0c-0.221,0.033-0.441,0.079-0.657,0.137c-0.284-0.018-0.569-0.018-0.853,0 c-0.324-0.066-0.652-0.112-0.981-0.137H118.629c-7.845-0.017-15.258,3.589-20.087,9.771L64.963,52.437 c-6.058,7.7-7.19,18.182-2.916,26.998c4.274,8.816,13.206,14.419,23.003,14.431h23.356L1.884,490.505 c-1.376,5.12-0.294,10.588,2.927,14.798s8.216,6.685,13.517,6.697h483.994c4.432-0.079,8.066-3.538,8.363-7.962 c0.021-0.361,0.021-0.723,0-1.084C510.656,502.437,510.579,501.922,510.454,501.419z M85.05,76.8 c-3.278,0.043-6.279-1.836-7.671-4.804c-1.473-2.933-1.096-6.456,0.964-9.011l33.587-42.667c1.612-2.059,4.084-3.259,6.699-3.251 h252.587L326.723,73.54c-1.613,2.064-4.088,3.267-6.707,3.26H85.05z M18.328,494.933l107.75-401.067h193.937 c7.853,0.022,15.276-3.584,20.113-9.771l34.739-44.134L265.052,494.933H18.328z M382.702,80.213V438.46l-98.33,49.161 L382.702,80.213z M307.915,494.933l83.174-41.591l77.235,41.591H307.915z M399.768,438.613V85.615l89.984,401.476 L399.768,438.613z"/><path d="M292.666,153.6H156.713c-11.803-0.033-22.093,8.023-24.892,19.49l-16.777,68.267c-1.878,7.643-0.137,15.726,4.723,21.917 c4.86,6.191,12.298,9.802,20.168,9.793H275.89c11.803,0.033,22.093-8.023,24.892-19.49l16.777-68.267 c1.878-7.643,0.137-15.726-4.723-21.917C307.975,157.202,300.537,153.59,292.666,153.6z M300.952,181.231l-16.768,68.267 c-0.936,3.82-4.362,6.505-8.294,6.502H139.937c-2.624,0.008-5.103-1.199-6.716-3.268l0.026-0.009 c-1.626-2.057-2.206-4.752-1.57-7.296l16.768-68.267c0.937-3.807,4.348-6.486,8.269-6.494h135.953 c2.62,0.001,5.095,1.205,6.712,3.267C300.996,175.996,301.576,178.686,300.952,181.231z"/></symbol><symbol id="login" viewBox="0 0 512 512"><title>login</title><g> <g> <path d="M511.489,20.065C509.128,8.518,498.662,0,486.881,0h-76.96c-4.428,0-8.017,3.588-8.017,8.017 c0,4.428,3.588,8.017,8.017,8.017h76.96c4.953,0,9.086,4.127,9.086,9.086v60.392H16.033V25.119c0-4.953,4.133-9.086,9.086-9.086 h342.046c4.428,0,8.017-3.588,8.017-8.017c0-4.428-3.588-8.017-8.017-8.017H25.119C11.429,0,0,11.423,0,25.119v324.944 c0,4.428,3.589,8.017,8.017,8.017c4.427,0,8.017-3.588,8.017-8.017V101.545h479.933v385.336c0,5.01-4.076,9.086-9.086,9.086 H25.119c-5.01,0-9.086-4.076-9.086-9.086v-94.063c0-4.428-3.589-8.017-8.017-8.017c-4.427,0-8.017,3.588-8.017,8.017v94.063 C0,500.732,11.268,512,25.119,512h461.762C500.732,512,512,500.732,512,486.881V25.119C512,23.422,511.829,21.721,511.489,20.065z "/> </g> </g><g> <g> <path d="M67.875,25.653c-13.851,0-25.119,11.268-25.119,25.119c0,13.851,11.268,25.119,25.119,25.119s25.119-11.268,25.119-25.119 C92.994,36.922,81.725,25.653,67.875,25.653z M67.875,59.858c-5.01,0-9.086-4.076-9.086-9.086c0-5.01,4.076-9.086,9.086-9.086 c5.01,0,9.086,4.076,9.086,9.086C76.96,55.782,72.885,59.858,67.875,59.858z"/> </g> </g><g> <g> <path d="M136.284,25.653c-13.851,0-25.119,11.268-25.119,25.119c0,13.851,11.268,25.119,25.119,25.119 s25.119-11.268,25.119-25.119C161.403,36.922,150.135,25.653,136.284,25.653z M136.284,59.858c-5.01,0-9.086-4.076-9.086-9.086 c0-5.01,4.076-9.086,9.086-9.086s9.086,4.076,9.086,9.086C145.37,55.782,141.294,59.858,136.284,59.858z"/> </g> </g><g> <g> <path d="M204.693,25.653c-13.851,0-25.119,11.268-25.119,25.119c0,13.851,11.268,25.119,25.119,25.119 s25.119-11.268,25.119-25.119C229.812,36.922,218.544,25.653,204.693,25.653z M204.693,59.858c-5.01,0-9.086-4.076-9.086-9.086 c0-5.01,4.076-9.086,9.086-9.086s9.086,4.076,9.086,9.086C213.779,55.782,209.703,59.858,204.693,59.858z"/> </g> </g><g> <g> <path d="M384.267,350.597H136.284c-4.427,0-8.017,3.588-8.017,8.017v34.205c0,4.428,3.589,8.017,8.017,8.017h247.983 c4.428,0,8.017-3.588,8.017-8.017v-34.205C392.284,354.185,388.696,350.597,384.267,350.597z M376.251,384.802h-231.95V366.63 h231.95V384.802z"/> </g> </g><g> <g> <path d="M384.267,419.006H136.284c-4.427,0-8.017,3.588-8.017,8.017v34.205c0,4.428,3.589,8.017,8.017,8.017h247.983 c4.428,0,8.017-3.588,8.017-8.017v-34.205C392.284,422.595,388.696,419.006,384.267,419.006z M376.251,453.211h-231.95V435.04 h231.95V453.211z"/> </g> </g><g> <g> <path d="M461.228,42.756h-17.102c-4.428,0-8.017,3.588-8.017,8.017c0,4.428,3.588,8.017,8.017,8.017h17.102 c4.428,0,8.017-3.588,8.017-8.017C469.244,46.344,465.656,42.756,461.228,42.756z"/> </g> </g><g> <g> <path d="M418.472,42.756H290.205c-4.428,0-8.017,3.588-8.017,8.017c0,4.428,3.588,8.017,8.017,8.017h128.267 c4.428,0,8.017-3.588,8.017-8.017C426.489,46.344,422.9,42.756,418.472,42.756z"/> </g> </g><g> <g> <path d="M307.307,196.676h-0.534v-26.188c0-23.281-18.941-42.221-42.221-42.221h-17.102c-23.281,0-42.221,18.941-42.221,42.221 v8.551c0,4.428,3.589,8.017,8.017,8.017s8.017-3.588,8.017-8.017v-8.551c0-14.441,11.748-26.188,26.188-26.188h17.102 c14.441,0,26.188,11.747,26.188,26.188v26.188h-86.046c-13.851,0-25.119,11.268-25.119,25.119v102.614 c0,4.428,3.589,8.017,8.017,8.017h136.818c4.428,0,8.017-3.588,8.017-8.017V221.795 C332.426,207.945,321.158,196.676,307.307,196.676z M316.393,316.393H195.608v-94.597c0-5.01,4.076-9.086,9.086-9.086h102.614 c5.01,0,9.086,4.076,9.086,9.086V316.393z"/> </g> </g><g> <g> <path d="M256,230.881c-13.851,0-25.119,11.268-25.119,25.119c0,11.048,7.172,20.446,17.102,23.8v18.956 c0,4.428,3.589,8.017,8.017,8.017c4.428,0,8.017-3.588,8.017-8.017V279.8c9.93-3.354,17.102-12.752,17.102-23.8 C281.119,242.149,269.851,230.881,256,230.881z M256,265.086c-5.01,0-9.086-4.076-9.086-9.086s4.076-9.086,9.086-9.086 s9.086,4.076,9.086,9.086S261.01,265.086,256,265.086z"/> </g> </g></symbol><symbol id="order-1" viewBox="0 0 512 512"><title>order-1</title><g> <g> <path d="M123.6,130.172H56.186c-4.155,0-7.522,3.368-7.522,7.522c0,4.154,3.367,7.522,7.522,7.522H123.6 c4.155,0,7.522-3.368,7.522-7.522C131.122,133.54,127.754,130.172,123.6,130.172z"/> </g> </g><g> <g> <path d="M189.85,130.173h-33.706c-4.155,0-7.523,3.368-7.523,7.522c0,4.154,3.368,7.522,7.523,7.522h33.706 c4.155,0,7.522-3.368,7.522-7.522C197.372,133.541,194.005,130.173,189.85,130.173z"/> </g> </g><g> <g> <path d="M339.786,130.172H223.557c-4.155,0-7.522,3.368-7.522,7.522c0,4.154,3.368,7.522,7.522,7.522h116.229 c4.155,0,7.522-3.368,7.522-7.522C347.308,133.54,343.941,130.172,339.786,130.172z"/> </g> </g><g> <g> <path d="M85.777,181.588H56.186c-4.155,0-7.522,3.368-7.522,7.522s3.367,7.522,7.522,7.522h29.591 c4.155,0,7.522-3.368,7.522-7.522C93.299,184.955,89.932,181.588,85.777,181.588z"/> </g> </g><g> <g> <path d="M262.856,181.588h-147.78c-4.155-0.001-7.523,3.367-7.523,7.522c0,4.154,3.368,7.522,7.522,7.522h147.781 c4.155,0,7.522-3.368,7.522-7.522C270.378,184.955,267.011,181.588,262.856,181.588z"/> </g> </g><g> <g> <path d="M339.786,181.587H296.39c-4.155,0-7.522,3.368-7.522,7.522s3.367,7.522,7.522,7.522h43.396 c4.155,0,7.522-3.368,7.522-7.522C347.309,184.955,343.941,181.587,339.786,181.587z"/> </g> </g><g> <g> <path d="M133.115,233.002H56.186c-4.155,0-7.522,3.368-7.522,7.523c0,4.154,3.367,7.522,7.522,7.522h76.929 c4.155,0,7.522-3.368,7.522-7.522C140.637,236.37,137.27,233.002,133.115,233.002z"/> </g> </g><g> <g> <path d="M223.557,233.002H162.73c-4.155,0-7.522,3.368-7.522,7.523c0,4.154,3.368,7.522,7.522,7.522h60.827 c4.155,0,7.522-3.368,7.522-7.522C231.08,236.37,227.712,233.002,223.557,233.002z"/> </g> </g><g> <g> <path d="M339.786,233.002h-86.397c-4.155,0-7.522,3.368-7.522,7.523c0,4.154,3.368,7.522,7.522,7.522h86.397 c4.155,0,7.522-3.368,7.522-7.522C347.309,236.37,343.941,233.002,339.786,233.002z"/> </g> </g><g> <g> <path d="M115.076,284.418h-58.89c-4.155,0-7.522,3.368-7.522,7.522s3.367,7.522,7.522,7.522h58.89 c4.155,0,7.522-3.368,7.522-7.522S119.231,284.418,115.076,284.418z"/> </g> </g><g> <g> <path d="M253.389,284.417H145.295c-4.155,0-7.522,3.368-7.522,7.522c0,4.155,3.367,7.522,7.522,7.522h108.094 c4.155,0,7.522-3.368,7.522-7.522C260.912,287.785,257.544,284.417,253.389,284.417z"/> </g> </g><g> <g> <path d="M339.786,284.417h-58.114c-4.155,0-7.522,3.368-7.522,7.522c0,4.155,3.367,7.522,7.522,7.522h58.114 c4.155,0,7.522-3.368,7.522-7.522C347.309,287.785,343.941,284.417,339.786,284.417z"/> </g> </g><g> <g> <path d="M162.73,335.833H56.186c-4.155,0-7.522,3.368-7.522,7.522s3.367,7.522,7.522,7.522H162.73 c4.155,0,7.522-3.368,7.522-7.522S166.885,335.833,162.73,335.833z"/> </g> </g><g> <g> <path d="M269.662,335.833h-76.519c-4.155-0.001-7.522,3.367-7.522,7.522c0,4.154,3.368,7.522,7.522,7.522h76.519 c4.155,0,7.522-3.368,7.522-7.522S273.817,335.833,269.662,335.833z"/> </g> </g><g> <g> <path d="M339.786,335.832h-38.743c-4.155,0-7.522,3.368-7.522,7.522s3.367,7.522,7.522,7.522h38.743 c4.155,0,7.522-3.368,7.522-7.522S343.941,335.832,339.786,335.832z"/> </g> </g><g> <g> <path d="M76.332,387.248H56.186c-4.155,0-7.522,3.368-7.522,7.522s3.367,7.522,7.522,7.522h20.146 c4.155,0,7.522-3.368,7.522-7.522S80.487,387.248,76.332,387.248z"/> </g> </g><g> <g> <path d="M231.402,387.248H109.458c-4.155,0-7.522,3.368-7.522,7.522s3.368,7.522,7.522,7.522h121.944 c4.155,0,7.522-3.368,7.522-7.522C238.924,390.616,235.557,387.248,231.402,387.248z"/> </g> </g><g> <g> <path d="M339.786,387.247h-79.424c-4.155,0-7.522,3.368-7.522,7.522s3.368,7.522,7.522,7.522h79.424 c4.155,0,7.522-3.368,7.522-7.522S343.941,387.247,339.786,387.247z"/> </g> </g><g> <g> <path d="M123.6,438.663H56.186c-4.155,0-7.522,3.368-7.522,7.522s3.367,7.522,7.522,7.522H123.6c4.155,0,7.522-3.368,7.522-7.522 C131.122,442.03,127.754,438.663,123.6,438.663z"/> </g> </g><g> <g> <path d="M253.39,438.663h-99.673c-4.155,0-7.522,3.368-7.522,7.522c-0.001,4.154,3.367,7.522,7.522,7.522h99.673 c4.155,0,7.522-3.368,7.522-7.522C260.912,442.03,257.545,438.663,253.39,438.663z"/> </g> </g><g> <g> <path d="M339.786,438.662h-58.114c-4.155,0-7.522,3.368-7.522,7.522s3.367,7.522,7.522,7.522h58.114 c4.155,0,7.522-3.368,7.522-7.522C347.309,442.03,343.941,438.662,339.786,438.662z"/> </g> </g><g> <g> <path d="M387.692,398.425c-4.155,0-7.522,3.368-7.522,7.522v85.094c0,3.261-2.653,5.914-5.914,5.914H21.717 c-3.261,0-5.914-2.653-5.914-5.914V20.959c0-3.261,2.653-5.914,5.914-5.914h35.938V34.74 C45.79,38.039,37.053,48.931,37.053,61.833c0,15.507,12.617,28.124,28.124,28.124S93.3,77.341,93.3,61.833 c0-12.902-8.736-23.794-20.601-27.093V15.045h73.495V34.74c-11.865,3.299-20.602,14.191-20.602,27.093 c0,15.507,12.617,28.124,28.124,28.124s28.123-12.616,28.123-28.124c0-12.902-8.736-23.794-20.601-27.093V15.045h73.495V34.74 c-11.865,3.299-20.602,14.191-20.602,27.093c0,15.507,12.617,28.124,28.124,28.124s28.123-12.616,28.123-28.124 c0-12.902-8.736-23.794-20.601-27.093V15.045h73.494V34.74c-11.865,3.299-20.601,14.191-20.601,27.093 c0,15.507,12.616,28.124,28.123,28.124c15.507,0,28.124-12.616,28.124-28.124c0-12.902-8.736-23.794-20.602-27.093V15.045h35.938 c3.261,0,5.914,2.653,5.914,5.914v338.35c0,4.154,3.367,7.522,7.522,7.522c4.155,0,7.522-3.368,7.522-7.522V20.959 C395.214,9.402,385.812,0,374.255,0H21.717C10.16,0,0.758,9.402,0.758,20.959v470.083C0.758,502.598,10.16,512,21.717,512h352.538 c11.557,0,20.959-9.402,20.959-20.959v-85.094C395.214,401.793,391.847,398.425,387.692,398.425z M343.875,61.834 c0,7.211-5.867,13.079-13.079,13.079c-7.211,0-13.078-5.867-13.078-13.079c0-7.212,5.867-13.078,13.078-13.078 C338.007,48.755,343.875,54.622,343.875,61.834z M255.335,61.834c0,7.211-5.867,13.079-13.078,13.079 c-7.212,0-13.079-5.867-13.079-13.079c0-7.212,5.867-13.078,13.079-13.078C249.468,48.755,255.335,54.622,255.335,61.834z M166.795,61.834c0,7.211-5.867,13.079-13.078,13.079c-7.212,0-13.079-5.867-13.079-13.079c0-7.212,5.867-13.078,13.079-13.078 C160.928,48.755,166.795,54.622,166.795,61.834z M78.255,61.834c0,7.211-5.867,13.079-13.078,13.079 c-7.212,0-13.079-5.867-13.079-13.079c0-7.212,5.867-13.078,13.079-13.078C72.388,48.755,78.255,54.622,78.255,61.834z"/> </g> </g><g> <g> <path d="M475.624,2.389h-23.067c-19.64,0-35.618,15.978-35.618,35.618v47.069v49.561c0,4.155,3.367,7.522,7.522,7.522 c4.155,0,7.522-3.368,7.522-7.522V92.599h64.213V432.87h-64.213V182.113c0-4.154-3.367-7.522-7.522-7.522 c-4.155,0-7.522,3.368-7.522,7.522v258.28c0,0.014,0.002,0.028,0.002,0.042c0,0.064,0.008,0.128,0.01,0.193 c0.007,0.24,0.024,0.477,0.054,0.711c0.011,0.088,0.026,0.175,0.04,0.263c0.037,0.228,0.084,0.452,0.141,0.673 c0.018,0.07,0.034,0.139,0.054,0.209c0.171,0.591,0.413,1.151,0.715,1.673c0.017,0.029,0.028,0.06,0.045,0.089l35.321,59.249 c2.284,3.831,6.311,6.118,10.771,6.117c4.459,0,8.485-2.288,10.767-6.117l35.322-59.249c0.017-0.029,0.029-0.06,0.045-0.089 c0.302-0.522,0.544-1.081,0.715-1.673c0.02-0.069,0.036-0.139,0.054-0.209c0.057-0.221,0.104-0.445,0.141-0.673 c0.014-0.088,0.029-0.175,0.04-0.263c0.029-0.233,0.046-0.469,0.054-0.708c0.002-0.065,0.01-0.13,0.01-0.195 c0-0.014,0.002-0.027,0.002-0.041V85.077V38.008C511.242,18.368,495.263,2.389,475.624,2.389z M464.09,492.176l-26.386-44.261 h52.773L464.09,492.176z M496.197,77.554h-64.213V38.008c0-11.344,9.229-20.573,20.573-20.573h23.067 c11.344,0,20.573,9.229,20.573,20.573V77.554z"/> </g> </g></symbol><symbol id="order" viewBox="0 0 409.221 409.221"><title>order</title><path d="m252.738,310.823c0,5.523-4.477,10-10,10h-76.254c-5.523,0-10-4.477-10-10s4.477-10 10-10h76.254c5.523,0 10,4.477 10,10zm-94.617-160.914c0-19.248 20.421-34.326 46.49-34.326s46.489,15.078 46.489,34.326-20.42,34.326-46.489,34.326-46.49-15.078-46.49-34.326zm20,0c0,6.762 11.329,14.326 26.49,14.326s26.489-7.563 26.489-14.326-11.328-14.326-26.489-14.326-26.49,7.564-26.49,14.326zm174.793-98.837v348.148c0,5.523-4.477,10-10,10h-276.607c-5.523,0-10-4.477-10-10v-348.148c0-5.523 4.477-10 10-10h79.651v-6.747c0-5.523 4.477-10 10-10h15.811c4.292-14.064 17.39-24.325 32.84-24.325s28.55,10.261 32.841,24.326h15.813c5.523,0 10,4.477 10,10v6.747h79.65c5.524-0.001 10.001,4.476 10.001,9.999zm-186.956,21.907h77.305v-28.653h-14.327c-5.523,0-10-4.477-10-10 0-7.899-6.426-14.326-14.326-14.326h-0.001c-7.899,0-14.326,6.426-14.326,14.326 0,5.523-4.477,10-10,10h-14.326v28.653zm-39.763,267.589h156.832v-279.496h-19.763v21.907c0,5.523-4.477,10-10,10h-97.305c-5.523,0-10-4.477-10-10v-21.907h-19.764v279.496zm206.72-279.496h-29.888v289.496c0,5.523-4.477,10-10,10h-176.832c-5.523,0-10-4.477-10-10v-289.496h-29.887v328.148h256.606v-328.148zm-109.239,211.098c5.523,0 10-4.477 10-10s-4.477-10-10-10h-38.127c-5.523,0-10,4.477-10,10s4.477,10 10,10h38.127zm19.064-51.774h-76.254c-5.523,0-10,4.477-10,10s4.477,10 10,10h76.254c5.523,0 10-4.477 10-10s-4.477-10-10-10z"/></symbol><symbol id="bill" viewBox="0 0 491.695 491.695"><title>bill</title><path d="M436.714,0H149.471c-16.438,0-29.812,13.374-29.812,29.812v66.714c-54.49,15.594-94.489,65.857-94.489,125.288 c0,59.431,39.998,109.694,94.489,125.288v114.783c0,16.438,13.374,29.812,29.812,29.812h234.733c2.785,0,5.455-1.106,7.425-3.075 l71.821-71.822c1.969-1.969,3.075-4.64,3.075-7.425V29.812C466.525,13.374,453.152,0,436.714,0z M149.471,21h287.243 c4.858,0,8.811,3.953,8.811,8.812v31.689H140.659V29.812C140.659,24.953,144.612,21,149.471,21z M46.17,221.813 c0-60.263,49.027-109.29,109.29-109.29c60.263,0,109.29,49.027,109.29,109.29s-49.027,109.291-109.29,109.291 C95.197,331.104,46.17,282.076,46.17,221.813z M140.659,461.884V351.258c4.86,0.552,9.797,0.846,14.802,0.846 c39.135,0,74.292-17.347,98.195-44.752h64.336c5.799,0,10.5-4.701,10.5-10.5s-4.701-10.5-10.5-10.5h-49.381 c9.133-15.95,14.984-34.005,16.644-53.242h32.736c5.799,0,10.5-4.701,10.5-10.5c0-5.799-4.701-10.5-10.5-10.5h-32.603 c-1.42-19.194-7.02-37.242-15.886-53.241h48.488c5.799,0,10.5-4.701,10.5-10.5c0-5.799-4.701-10.5-10.5-10.5h-62.974 c-23.918-28.323-59.67-46.347-99.558-46.347c-5.005,0-9.942,0.294-14.802,0.846v-9.867h304.866v316.372h-42.009 c-16.439,0-29.811,13.374-29.811,29.811v42.011H149.471C144.612,470.695,140.659,466.743,140.659,461.884z M394.705,455.845v-27.16 c0-4.859,3.953-8.811,8.811-8.811h27.16L394.705,455.845z"/><path d="M359.246,158.869h34.87c5.799,0,10.5-4.701,10.5-10.5c0-5.799-4.701-10.5-10.5-10.5h-34.87c-5.799,0-10.5,4.701-10.5,10.5 C348.746,154.168,353.447,158.869,359.246,158.869z"/><path d="M359.246,233.11h34.87c5.799,0,10.5-4.701,10.5-10.5c0-5.799-4.701-10.5-10.5-10.5h-34.87c-5.799,0-10.5,4.701-10.5,10.5 C348.746,228.409,353.447,233.11,359.246,233.11z"/><path d="M359.246,307.352h34.87c5.799,0,10.5-4.701,10.5-10.5s-4.701-10.5-10.5-10.5h-34.87c-5.799,0-10.5,4.701-10.5,10.5 S353.447,307.352,359.246,307.352z"/><path d="M394.116,381.593c5.799,0,10.5-4.701,10.5-10.5s-4.701-10.5-10.5-10.5h-98.225c-5.799,0-10.5,4.701-10.5,10.5 s4.701,10.5,10.5,10.5H394.116z"/><path d="M236.982,168.845l-12.81-12.81c-3.45-3.449-8.036-5.349-12.915-5.349s-9.465,1.9-12.915,5.349l-67.19,67.19l-18.573-18.573 c-3.449-3.448-8.036-5.348-12.914-5.348c-4.878,0-9.465,1.9-12.914,5.349l-12.813,12.812c-7.12,7.121-7.12,18.708,0.001,25.829 l44.297,44.296c3.45,3.451,8.037,5.351,12.916,5.351c0,0,0.001,0,0.001,0c4.878,0,9.465-1.9,12.913-5.349l92.917-92.917 C244.103,187.554,244.103,175.966,236.982,168.845z M131.151,270.807l-40.429-40.428l8.942-8.942l24.062,24.062 c4.101,4.101,10.749,4.101,14.85,0l72.681-72.681l8.942,8.942L131.151,270.807z"/></symbol><symbol id="google-1" viewBox="0 0 512 512"><title>google-1</title><path style="fill:#FBBB00;" d="M113.47,309.408L95.648,375.94l-65.139,1.378C11.042,341.211,0,299.9,0,256 c0-42.451,10.324-82.483,28.624-117.732h0.014l57.992,10.632l25.404,57.644c-5.317,15.501-8.215,32.141-8.215,49.456 C103.821,274.792,107.225,292.797,113.47,309.408z"/><path style="fill:#518EF8;" d="M507.527,208.176C510.467,223.662,512,239.655,512,256c0,18.328-1.927,36.206-5.598,53.451 c-12.462,58.683-45.025,109.925-90.134,146.187l-0.014-0.014l-73.044-3.727l-10.338-64.535 c29.932-17.554,53.324-45.025,65.646-77.911h-136.89V208.176h138.887L507.527,208.176L507.527,208.176z"/><path style="fill:#28B446;" d="M416.253,455.624l0.014,0.014C372.396,490.901,316.666,512,256,512 c-97.491,0-182.252-54.491-225.491-134.681l82.961-67.91c21.619,57.698,77.278,98.771,142.53,98.771 c28.047,0,54.323-7.582,76.87-20.818L416.253,455.624z"/><path style="fill:#F14336;" d="M419.404,58.936l-82.933,67.896c-23.335-14.586-50.919-23.012-80.471-23.012 c-66.729,0-123.429,42.957-143.965,102.724l-83.397-68.276h-0.014C71.23,56.123,157.06,0,256,0 C318.115,0,375.068,22.126,419.404,58.936z"/></symbol><symbol id="google" viewBox="0 0 512 512"><title>google</title><path d="M507.527,208.179c-0.908-4.782-5.088-8.242-9.955-8.242H261.404c-5.596,0-10.132,4.536-10.132,10.132v97.266 c0,5.596,4.536,10.132,10.132,10.132h115.967c-11.752,23.149-30.065,42.7-52.671,55.958c-20.729,12.168-44.485,18.599-68.7,18.599 c-56.417,0-107.615-35.479-127.404-88.296c-5.72-15.213-8.62-31.271-8.62-47.729c0-15.134,2.471-30.009,7.34-44.206 c18.871-54.919,70.586-91.818,128.685-91.818c25.528,0,50.398,7.11,71.916,20.561c3.684,2.303,8.427,2.001,11.788-0.752 l79.65-65.209c2.341-1.917,3.703-4.78,3.714-7.804c0.011-3.026-1.332-5.897-3.66-7.83C373.632,20.933,315.599,0,256,0 C114.841,0,0,114.841,0,256c0,42.345,10.552,84.299,30.516,121.326C75.307,460.396,161.708,512,256,512 c59.004,0,116.586-20.556,162.139-57.879c44.922-36.807,76.269-88.19,88.261-144.677c3.715-17.449,5.6-35.431,5.6-53.445 C512,239.906,510.495,223.817,507.527,208.179z M256,20.264c50.746,0,100.257,16.477,140.753,46.628l-64.4,52.724 c-23.24-13.043-49.482-19.904-76.353-19.904c-61.934,0-117.53,36.511-142.555,92.184l-62.849-51.454 C91.079,68.767,167.977,20.264,256,20.264z M20.264,256c0-34.585,7.488-67.453,20.924-97.071l64.819,53.067 c-4.173,14.251-6.295,29.018-6.295,44.004c0,16.43,2.525,32.523,7.502,47.94l-64.412,52.727 C28.041,325.39,20.264,290.848,20.264,256z M256,491.736c-84.05,0-161.291-44.532-203.565-116.768l62.675-51.305 c11.504,23.986,28.887,44.597,50.889,60.122c26.427,18.647,57.549,28.504,90,28.504c25.424,0,50.411-6.197,72.719-17.94 l64.854,53.093C353.689,476.097,305.388,491.736,256,491.736z M486.581,305.23c-10.63,50.067-37.787,95.775-76.714,129.362 l-62.917-51.508c25.118-18.016,44.552-43.208,55.414-72.195c1.166-3.111,0.732-6.597-1.16-9.327 c-1.893-2.73-5.005-4.359-8.327-4.359H271.536v-77.003h217.493c1.798,11.78,2.707,23.786,2.707,35.799 C491.736,272.599,490.002,289.161,486.581,305.23z"/></symbol><symbol id="facebook" viewBox="0 0 512 512"><title>facebook</title><path style="fill:#1C74BB;" d="M469.333,0H42.667C19.14,0,0,19.14,0,42.667v426.667C0,492.86,19.14,512,42.667,512h426.667 C492.86,512,512,492.86,512,469.333V42.667C512,19.14,492.86,0,469.333,0z"/><g> <path style="fill:#035FA1;" d="M503.467,477.867H59.733c-14.139,0-25.6-11.461-25.6-25.6V8.533c0-2.667,0.257-5.273,0.725-7.805 C15.05,4.41,0,21.808,0,42.667v426.667C0,492.86,19.14,512,42.667,512h426.667c20.859,0,38.257-15.05,41.938-34.859 C508.739,477.61,506.133,477.867,503.467,477.867z"/> <path style="fill:#035FA1;" d="M213.333,512V341.333H204.8c-18.821,0-34.133-15.312-34.133-34.133v-68.267 c0-18.821,15.312-34.133,34.133-34.133h8.533v-17.067c0-75.285,61.249-136.533,136.533-136.533h68.267 c18.821,0,34.133,15.312,34.133,34.133V153.6c0,18.821-15.312,34.133-34.133,34.133h-68.267V204.8h68.267 c18.821,0,34.133,15.312,34.133,34.133V307.2c0,18.821-15.312,34.133-34.133,34.133h-68.267V512H213.333z"/> </g><path style="fill:#FFFFFF;" d="M349.867,162.133h68.267c4.713,0,8.533-3.821,8.533-8.533V85.333c0-4.713-3.821-8.533-8.533-8.533 h-68.267c-61.267,0-110.933,49.666-110.933,110.933V230.4H204.8c-4.713,0-8.533,3.821-8.533,8.533V307.2 c0,4.713,3.821,8.533,8.533,8.533h34.133V512h85.333V315.733h93.867c4.713,0,8.533-3.821,8.533-8.533v-68.267 c0-4.713-3.821-8.533-8.533-8.533h-93.867v-42.667C324.267,173.595,335.728,162.133,349.867,162.133z"/><rect x="238.933" y="477.867" style="fill:#E5E5E5;" width="85.333" height="34.133"/></symbol><symbol id="comic" viewBox="0 0 455.111 455.111"><title>comic</title><polygon style="fill:#DFE4E9;" points="15.644,435.2 140.8,345.6 140.8,398.222 184.889,361.244 193.422,455.111 227.556,362.667 251.733,411.022 261.689,345.6 331.378,389.689 312.889,304.356 455.111,339.911 347.022,247.467 409.6,223.289 348.444,209.067 381.156,167.822 335.644,170.667 378.311,106.667 317.156,143.644 362.667,0 246.044,115.2 244.622,48.356 206.222,108.089 120.889,9.956 146.489,130.844 25.6,41.244 82.489,177.778 18.489,211.911 65.422,244.622 0,300.089 109.511,291.556 "/><polygon style="fill:#E9EFF4;" points="73.956,379.733 163.556,314.311 163.556,352.711 196.267,324.267 203.378,393.956 227.556,325.689 246.044,361.244 253.156,314.311 302.933,345.6 290.133,283.022 393.956,310.044 314.311,241.778 359.822,224.711 315.733,213.333 339.911,184.889 305.778,186.311 337.067,139.378 292.978,166.4 325.689,61.156 241.778,146.489 240.356,96.711 211.911,140.8 150.756,69.689 167.822,157.867 79.644,91.022 122.311,192 75.378,216.178 109.511,240.356 61.156,280.178 140.8,274.489 "/></symbol><symbol id="chef" viewBox="0 0 436.807 436.807"><title>chef</title><path id="XMLID_130_" d="M109.246,207.047c4.971,0,9,4.029,9,9s-4.029,9-9,9c-28.8,0-55.557-15.563-69.828-40.613 c-2.46-4.319-0.953-9.814,3.365-12.275c4.32-2.461,9.814-0.954,12.275,3.365C66.136,194.968,86.898,207.047,109.246,207.047z M108.747,293.452v65.035c0,4.971,4.029,9,9,9s9-4.029,9-9v-65.035c0-4.971-4.029-9-9-9S108.747,288.481,108.747,293.452z M242.334,216.047c0,4.971,4.029,9,9,9c16.438,0,32.245-4.935,45.711-14.271c4.085-2.832,5.101-8.439,2.269-12.524 c-2.832-4.086-8.44-5.102-12.524-2.269c-10.439,7.238-22.699,11.063-35.455,11.063C246.363,207.047,242.334,211.076,242.334,216.047 z M289.092,283.602c-4.971,0-9,4.029-9,9v86.591c-1.76,1.876-9.404,6.48-29.197,10.428c-18.741,3.738-42.864,5.797-67.927,5.797 c-25.062,0-49.185-2.059-67.926-5.797c-19.792-3.947-27.437-8.552-29.196-10.428V263.873c3.387,0.363,6.823,0.549,10.306,0.549 c21.905,0,43.341-7.566,60.356-21.306c3.867-3.122,4.471-8.788,1.348-12.656c-3.122-3.866-8.788-4.474-12.656-1.348 c-14.024,11.324-30.985,17.31-49.048,17.31C53.059,246.422,18,211.363,18,168.271c0-43.092,35.059-78.149,78.151-78.149 c2.466,0,4.996,0.122,7.522,0.362c3.745,0.354,7.309-1.647,8.949-5.027c13.199-27.183,40.153-44.068,70.345-44.068 c30.193,0,57.148,16.886,70.347,44.066c1.641,3.38,5.209,5.386,8.949,5.028c2.52-0.239,5.05-0.361,7.521-0.361c4.971,0,9-4.029,9-9 s-4.029-9-9-9c-1.036,0-2.079,0.018-3.127,0.052c-7.73-13.642-18.691-25.215-31.979-33.708 c-15.435-9.863-33.315-15.077-51.711-15.077c-18.394,0-36.274,5.214-51.709,15.079c-13.288,8.492-24.249,20.065-31.979,33.706 c-1.049-0.034-2.093-0.052-3.128-0.052C43.134,72.121,0,115.254,0,168.271c0,43.171,28.599,79.788,67.846,91.9v119.956 c0,11.597,12.454,20.085,38.074,25.949c20.684,4.733,48.046,7.341,77.048,7.341c29.003,0,56.366-2.607,77.05-7.341 c25.62-5.864,38.074-14.353,38.074-25.949v-87.525C298.092,287.631,294.063,283.602,289.092,283.602z M387.606,62.163 c-4.971,0-9,4.029-9,9v65.035c0,4.971,4.029,9,9,9s9-4.029,9-9V71.163C396.606,66.192,392.577,62.163,387.606,62.163z M319.396,228.659c-13.924,11.454-31.543,17.763-49.611,17.763c-18.062,0-35.022-5.985-49.049-17.311 c-3.866-3.122-9.534-2.517-12.656,1.35c-3.122,3.867-2.519,9.533,1.35,12.656c17.017,13.738,38.451,21.305,60.355,21.305 c22.229,0,43.909-7.764,61.047-21.862c3.839-3.157,4.391-8.829,1.232-12.668C328.906,226.052,323.234,225.5,319.396,228.659z M436.807,40.252v125.003c0,17.42-28.017,26.08-58.317,27.494v134.428c10.538,3.72,18.11,13.779,18.11,25.575v42.542 c0,14.948-12.162,27.109-27.11,27.109c-14.95,0-27.111-12.161-27.111-27.109v-42.542c0-11.797,7.572-21.857,18.111-25.575V192.749 c-30.301-1.414-58.318-10.074-58.318-27.494V40.252c0-2.063,0.694-3.966,1.863-5.483c7.948-14.966,39.576-20.365,65.455-20.365 c25.871,0,57.487,5.398,65.445,20.354C436.108,36.277,436.807,38.183,436.807,40.252z M369.489,343.642h-0.003 c-5.022,0-9.108,4.087-9.108,9.11v42.542c0,5.022,4.086,9.109,9.108,9.109c5.026,0,9.113-4.087,9.113-9.109v-42.542 C378.6,347.729,374.513,343.642,369.489,343.642z M418.807,42.867c-2.771-3.33-19.627-10.464-49.317-10.464 c-29.683,0-46.538,7.129-49.318,10.461v121.633c2.785,3.334,19.642,10.46,49.318,10.46c29.676,0,46.531-7.126,49.317-10.46V42.867z M351.371,62.163c-4.971,0-9,4.029-9,9v65.035c0,4.971,4.029,9,9,9s9-4.029,9-9V71.163 C360.371,66.192,356.342,62.163,351.371,62.163z"/></symbol><symbol id="menu-2" viewBox="0 0 24 24"><title>menu-2</title><path d="M24,3c0-0.6-0.4-1-1-1H1C0.4,2,0,2.4,0,3v2c0,0.6,0.4,1,1,1h22c0.6,0,1-0.4,1-1V3z"/><path d="M24,11c0-0.6-0.4-1-1-1H1c-0.6,0-1,0.4-1,1v2c0,0.6,0.4,1,1,1h22c0.6,0,1-0.4,1-1V11z"/><path d="M24,19c0-0.6-0.4-1-1-1H1c-0.6,0-1,0.4-1,1v2c0,0.6,0.4,1,1,1h22c0.6,0,1-0.4,1-1V19z"/></symbol><symbol id="menu" viewBox="0 0 512 512"><title>menu</title><g> <g> <path d="M491.318,235.318H20.682C9.26,235.318,0,244.577,0,256s9.26,20.682,20.682,20.682h470.636 c11.423,0,20.682-9.259,20.682-20.682C512,244.578,502.741,235.318,491.318,235.318z"/> </g> </g><g> <g> <path d="M491.318,78.439H20.682C9.26,78.439,0,87.699,0,99.121c0,11.422,9.26,20.682,20.682,20.682h470.636 c11.423,0,20.682-9.26,20.682-20.682C512,87.699,502.741,78.439,491.318,78.439z"/> </g> </g><g> <g> <path d="M491.318,392.197H20.682C9.26,392.197,0,401.456,0,412.879s9.26,20.682,20.682,20.682h470.636 c11.423,0,20.682-9.259,20.682-20.682S502.741,392.197,491.318,392.197z"/> </g> </g></symbol><symbol id="menu-1" viewBox="0 0 124 124"><title>menu-1</title><path d="M112,6H12C5.4,6,0,11.4,0,18s5.4,12,12,12h100c6.6,0,12-5.4,12-12S118.6,6,112,6z"/><path d="M112,50H12C5.4,50,0,55.4,0,62c0,6.6,5.4,12,12,12h100c6.6,0,12-5.4,12-12C124,55.4,118.6,50,112,50z"/><path d="M112,94H12c-6.6,0-12,5.4-12,12s5.4,12,12,12h100c6.6,0,12-5.4,12-12S118.6,94,112,94z"/></symbol><symbol id="spatula" viewBox="0 0 297.502 297.502"><title>spatula</title><rect x="17.006" y="237.171" transform="matrix(0.7071 -0.7071 0.7071 0.7071 -155.02 110.0603)" style="fill:#E8D579;" width="76.678" height="9.97"/><path style="fill:#B8C4AC;" d="M274.47,101.281c1.74,1.75,2.641,3.92,2.521,6.12c-0.13,2.189-1.25,4.25-3.181,5.79l-75.26,60.199 c-2.05,1.641-4.79,2.551-7.71,2.551c-1.74,0-3.42-0.32-4.95-0.91c-1.529-0.59-2.89-1.46-3.989-2.561l-56.87-56.87 c-4.21-4.21-4.641-11.989-0.92-16.649l60.21-75.25c1.64-2.05,3.84-3.19,6.189-3.19c2.08,0,4.061,0.88,5.71,2.53L274.47,101.281z M249.67,104.921c3.96-3.96,3.96-10.37,0-14.32c-3.96-3.96-10.37-3.96-14.32,0l-53.449,53.44c-3.961,3.95-3.961,10.37,0,14.32 c1.98,1.979,4.569,2.97,7.159,2.97c2.591,0,5.191-0.99,7.16-2.97L249.67,104.921z M228.29,83.541c3.96-3.96,3.96-10.37,0-14.32 c-3.95-3.96-10.36-3.96-14.32,0l-53.45,53.441c-3.949,3.95-3.949,10.37,0,14.32c1.98,1.98,4.57,2.97,7.16,2.97 c2.59,0,5.19-0.99,7.17-2.97L228.29,83.541z M206.91,62.161c3.96-3.95,3.96-10.37,0-14.32c-3.95-3.96-10.36-3.96-14.32,0 l-53.45,53.44c-3.95,3.96-3.95,10.37,0,14.33c1.98,1.97,4.57,2.96,7.16,2.96c2.601,0,5.19-0.99,7.17-2.96L206.91,62.161z"/><path d="M288.79,86.961c5.79,5.79,8.86,13.65,8.42,21.55c-0.44,7.91-4.35,15.38-10.75,20.5l-75.25,60.2 c-2.809,2.25-6.03,4-9.48,5.18c-3.449,1.191-7.14,1.811-10.89,1.811c-8.81,0-17.29-3.431-23.27-9.41L146.3,165.52l-42.36,42.36 l3.53,3.53c1.9,1.899,2.97,4.47,2.97,7.16c0,2.689-1.069,5.26-2.97,7.16l-68.55,68.55c-1.981,1.97-4.57,2.96-7.16,2.96 c-2.59,0-5.18-0.99-7.16-2.96l-21.38-21.38c-1.899-1.9-2.97-4.48-2.97-7.16c0-2.69,1.07-5.271,2.97-7.16l68.55-68.55 c3.95-3.95,10.37-3.95,14.32,0l3.53,3.529l42.359-42.359l-21.27-21.271c-11.43-11.43-12.521-31.01-2.42-43.63l60.21-75.25 c5.49-6.859,13.51-10.79,22.01-10.79c7.46,0,14.58,3,20.04,8.46L288.79,86.961z M276.99,107.401c0.12-2.2-0.78-4.37-2.521-6.12 l-78.25-78.24c-1.649-1.65-3.63-2.53-5.71-2.53c-2.35,0-4.55,1.141-6.189,3.19l-60.21,75.25c-3.721,4.66-3.29,12.439,0.92,16.649 l56.87,56.87c1.1,1.101,2.46,1.971,3.989,2.561c1.53,0.59,3.21,0.91,4.95,0.91c2.92,0,5.66-0.91,7.71-2.551l75.26-60.199 C275.74,111.651,276.86,109.591,276.99,107.401z M31.76,272.791l54.22-54.22l-7.05-7.051l-54.22,54.221L31.76,272.791z"/><path d="M249.67,90.6c3.96,3.95,3.96,10.36,0,14.32l-53.45,53.441c-1.97,1.979-4.569,2.97-7.16,2.97 c-2.59,0-5.18-0.99-7.159-2.97c-3.961-3.95-3.961-10.37,0-14.32L235.35,90.6C239.3,86.64,245.71,86.64,249.67,90.6z"/><path d="M228.29,69.22c3.96,3.95,3.96,10.36,0,14.32l-53.44,53.44c-1.979,1.98-4.58,2.97-7.17,2.97c-2.59,0-5.18-0.99-7.16-2.97 c-3.949-3.95-3.949-10.37,0-14.32l53.45-53.441C217.93,65.261,224.34,65.261,228.29,69.22z"/><path d="M206.91,47.841c3.96,3.95,3.96,10.37,0,14.32l-53.44,53.45c-1.98,1.97-4.569,2.96-7.17,2.96c-2.59,0-5.18-0.99-7.16-2.96 c-3.95-3.96-3.95-10.37,0-14.33l53.45-53.44C196.55,43.881,202.96,43.881,206.91,47.841z"/></symbol><symbol id="home" viewBox="0 0 512 512"><title>home</title><g> <g> <path d="M506.555,208.064L263.859,30.367c-4.68-3.426-11.038-3.426-15.716,0L5.445,208.064 c-5.928,4.341-7.216,12.665-2.875,18.593s12.666,7.214,18.593,2.875L256,57.588l234.837,171.943c2.368,1.735,5.12,2.57,7.848,2.57 c4.096,0,8.138-1.885,10.744-5.445C513.771,220.729,512.483,212.405,506.555,208.064z"/> </g> </g><g> <g> <path d="M442.246,232.543c-7.346,0-13.303,5.956-13.303,13.303v211.749H322.521V342.009c0-36.68-29.842-66.52-66.52-66.52 s-66.52,29.842-66.52,66.52v115.587H83.058V245.847c0-7.347-5.957-13.303-13.303-13.303s-13.303,5.956-13.303,13.303v225.053 c0,7.347,5.957,13.303,13.303,13.303h133.029c6.996,0,12.721-5.405,13.251-12.267c0.032-0.311,0.052-0.651,0.052-1.036v-128.89 c0-22.009,17.905-39.914,39.914-39.914s39.914,17.906,39.914,39.914v128.89c0,0.383,0.02,0.717,0.052,1.024 c0.524,6.867,6.251,12.279,13.251,12.279h133.029c7.347,0,13.303-5.956,13.303-13.303V245.847 C455.549,238.499,449.593,232.543,442.246,232.543z"/> </g> </g></symbol><symbol id="beer" viewBox="0 0 512 512"><title>beer</title><g> <g> <path d="M286,451.29c-5.52,0-10,4.48-10,10c0,5.52,4.48,10,10,10c5.52,0,10-4.48,10-10S291.52,451.29,286,451.29z"/> </g> </g><g> <g> <path d="M145.5,200.29c-5.523,0-10,4.477-10,10v191c0,5.523,4.477,10,10,10s10-4.477,10-10v-191 C155.5,204.767,151.023,200.29,145.5,200.29z"/> </g> </g><g> <g> <path d="M225.5,200.29c-5.523,0-10,4.477-10,10v191c0,5.523,4.477,10,10,10s10-4.477,10-10v-191 C235.5,204.767,231.023,200.29,225.5,200.29z"/> </g> </g><g> <g> <path d="M426.5,161h-50v-30.259c15.675-11.751,23.125-31.613,18.707-51.224c-4.133-18.39-19.313-33.398-37.768-37.345 c-9.811-2.105-19.692-1.36-28.695,2.063C319.716,30.002,303.862,21,286.5,21c-6.544,0-12.939,1.269-18.852,3.711 C250.91,8.922,228.843,0,206,0c-30.216,0-58.396,15.393-75.03,40.579C78.7,37.687,35.5,79.156,35.5,130.29v120 c0,16.542,13.682,30,30.5,30c3.689,0,7.224-0.671,10.5-1.893V462c0,27.57,22.43,50,50,50h200c27.57,0,50-22.43,50-50v-30h50 c27.57,0,50-22.43,50-50V211C476.5,183.43,454.07,161,426.5,161z M356.5,452h-30.51c-5.523,0-10,4.477-10,10s4.477,9.9,10,9.9 h28.79c-4.128,11.639-15.244,20.1-28.28,20.1h-200c-13.036,0-24.152-8.361-28.28-20h147.79c5.523,0,10-4.477,10-10 s-4.477-10-10-10H96.5V250.07v-70.564c22.463-3.391,41.914-17.538,52.14-38.505c2.086,0,3.924,0.722,5.309,2.081 c11.286,11.098,26.22,17.209,42.051,17.209c16.408,0,31.725-6.495,43.135-18.295c0.61-0.632,1.473-0.995,2.365-0.995 c15.567,0,25.753,3.325,30.277,9.881c3.729,5.405,3.726,12.915,3.723,18.95v40.459c0,13.036,8.361,24.152,20,28.28v162.72 c0,5.523,4.477,10,10,10s10-4.477,10-10V238.57c11.639-4.128,20-15.243,20-28.28v-70.464c7.005,1.398,14.154,1.407,21,0.007V452z M330.033,116.947c-3.1-1.577-6.796-1.43-9.762,0.389c-2.965,1.818-4.772,5.046-4.772,8.524v84.43c0,5.514-4.486,10-10,10 c-5.514,0-10-4.486-10-10v-40.452c0.003-7.876,0.008-19.779-7.261-30.315C279.759,127.232,264.034,121,241.5,121 c-6.29,0-12.396,2.589-16.749,7.099c-7.602,7.862-17.813,12.191-28.751,12.191c-10.553,0-20.507-4.073-28.035-11.477 c-5.133-5.039-11.996-7.813-19.325-7.813c-7.579,0-14.623,4.397-17.946,11.202c-8.382,17.164-25.35,27.927-44.28,28.089 c-5.489,0.047-9.915,4.51-9.915,10v79.525C76.147,255.705,71.568,260.29,66,260.29c-5.691,0-10.5-4.58-10.5-10v-120 c0-38.596,31.582-69.852,70.407-69.852c3.017,0,6.05,0.192,9.081,0.581c4.045,0.519,7.998-1.471,9.993-5.026 C157.437,33.792,180.818,20,206,20c19.73,0,38.752,8.615,52.187,23.637c3.256,3.642,8.668,4.398,12.799,1.785 C275.559,42.529,280.924,41,286.5,41c12.73,0,24.108,8.061,28.313,20.057c1.023,2.92,3.341,5.203,6.277,6.181 c2.935,0.978,6.159,0.542,8.729-1.182c6.816-4.57,15.134-6.107,23.429-4.327c10.8,2.31,20.03,11.428,22.446,22.179 C381.386,109.172,355.489,129.896,330.033,116.947z M376.5,221h40v151h-40V221z M456.5,382c0,16.542-13.458,30-30,30h-50v-20h50 c5.523,0,10-4.477,10-10V211c0-5.523-4.477-10-10-10h-50v-20h50c16.542,0,30,13.458,30,30V382z"/> </g> </g></symbol><symbol id="food-1" viewBox="0 0 496 496"><title>food-1</title><path d="M472,272V168c0-13.232-10.768-24-24-24h-16c-6.168,0-11.744,2.408-16,6.24c-4.256-3.84-9.832-6.24-16-6.24h-16 c-6.168,0-11.744,2.408-16,6.24c-4.256-3.84-9.832-6.24-16-6.24h-16c-13.232,0-24,10.768-24,24v102.656 c-18.456-12.792-45.392-23.68-84.832-28.288l12.6-88.208c0.152-1.064,0.232-2.144,0.232-3.224 C240,138.288,229.712,128,217.064,128H144V56c0-4.408,3.592-8,8-8h64c13.232,0,24-10.768,24-24S229.232,0,216,0h-72 c-26.472,0-48,21.528-48,48v80H22.936C10.288,128,0,138.288,0,150.936c0,1.08,0.08,2.16,0.232,3.248l19.28,134.944 C0.496,311.776,0,334.112,0,336c0,13.952,9.024,25.712,21.496,30.088C18.032,371.2,16,377.368,16,384 c0,8.528,3.4,16.232,8.856,21.976C10.056,414.16,0,429.92,0,448c0,26.472,21.528,48,48,48h240h16h192V328v-8v-24 C496,282.768,485.232,272,472,272z M424,168c0-4.408,3.592-8,8-8h16c4.408,0,8,3.592,8,8v104h-32V168z M376,168 c0-4.408,3.592-8,8-8h16c4.408,0,8,3.592,8,8v104h-32V168z M328,168c0-4.408,3.592-8,8-8h16c4.408,0,8,3.592,8,8v104h-32V168z M200,16h16c4.408,0,8,3.592,8,8s-3.592,8-8,8h-16V16z M168,16h16v16h-16V16z M112,48c0-17.648,14.352-32,32-32h8v16 c-13.232,0-24,10.768-24,24v72h-16V48z M17.224,160l-1.152-8.056c-0.048-0.336-0.072-0.672-0.072-1.008 c0-3.824,3.112-6.936,6.936-6.936H96h48h73.064c3.824,0,6.936,3.112,6.936,6.936c0,0.336-0.024,0.672-0.064,0.984l-1.16,8.08H200 v16h20.488l-4.568,32H24.08l-4.568-32H184v-16H17.224z M213.64,224l-2.416,16.928C202.656,240.336,193.632,240,184,240h-16 c-69.712,0-110.432,16.232-134.296,35.352L26.368,224H213.64z M16,336c0-0.8,1.736-80,152-80h16c149.224,0,151.96,76.784,152,80 c0,8.824-7.176,16-16,16h-8h-8H48H32C23.176,352,16,344.824,16,336z M48,400c-8.824,0-16-7.176-16-16c0-8.824,7.176-16,16-16h256 c8.824,0,16,7.176,16,16c0,8.824-7.176,16-16,16H48z M270.608,416l-32.824,38.296L150.24,416H270.608z M304,480h-16H48 c-17.648,0-32-14.352-32-32s14.352-32,32-32h62.328l131.888,57.704L291.68,416H304c17.648,0,32,14.352,32,32S321.648,480,304,480 z M327.152,405.976C332.6,400.232,336,392.528,336,384c0-5.856-1.696-11.272-4.448-16H448v80h-96c0-5.616-1.024-10.984-2.8-16 H400v-16h-60.32C336.096,412.008,331.88,408.592,327.152,405.976z M480,320h-16v16h16v144H339.68 c4.152-4.624,7.408-10.032,9.52-16H464V352H347.552c2.752-4.728,4.448-10.144,4.448-16h96v-16h-98.712 c-2.6-8.896-7.736-20.44-17.752-32H472c4.408,0,8,3.584,8,8V320z"/><rect x="416" y="416" width="16" height="16"/><rect x="104" y="272" width="16" height="16"/><rect x="136" y="288" width="16" height="16"/><rect x="168" y="272" width="16" height="16"/><rect x="216" y="296" width="16" height="16"/><rect x="256" y="272" width="16" height="16"/><rect x="56" y="304" width="16" height="16"/></symbol><symbol id="food-and-restaurant" viewBox="0 0 511.999 511.999"><title>food-and-restaurant</title><g> <g> <path d="M308.609,166.492c-0.13-0.64-0.33-1.27-0.58-1.87c-0.25-0.61-0.55-1.19-0.91-1.73c-0.37-0.55-0.79-1.06-1.25-1.52 c-0.46-0.46-0.97-0.88-1.52-1.24c-0.54-0.36-1.12-0.67-1.72-0.92c-0.61-0.25-1.24-0.44-1.87-0.57c-1.29-0.26-2.62-0.26-3.91,0 c-0.64,0.13-1.27,0.32-1.87,0.57c-0.61,0.25-1.19,0.56-1.73,0.92c-0.55,0.36-1.06,0.78-1.52,1.24c-0.46,0.46-0.88,0.97-1.24,1.52 c-0.36,0.54-0.67,1.12-0.92,1.73c-0.25,0.6-0.44,1.23-0.57,1.87s-0.2,1.3-0.2,1.95c0,0.65,0.07,1.31,0.2,1.96 c0.13,0.63,0.32,1.26,0.57,1.87c0.25,0.6,0.56,1.18,0.92,1.72c0.36,0.55,0.78,1.06,1.24,1.52c0.46,0.46,0.97,0.88,1.52,1.25 c0.54,0.36,1.12,0.67,1.73,0.92c0.6,0.25,1.23,0.44,1.87,0.57s1.3,0.19,1.95,0.19c0.65,0,1.31-0.06,1.96-0.19 c0.63-0.13,1.26-0.32,1.87-0.57c0.6-0.25,1.181-0.56,1.72-0.92c0.55-0.37,1.06-0.79,1.52-1.25c0.46-0.46,0.88-0.97,1.25-1.52 c0.36-0.54,0.66-1.12,0.91-1.72c0.25-0.61,0.45-1.24,0.58-1.87c0.13-0.65,0.19-1.31,0.19-1.96 C308.799,167.792,308.739,167.132,308.609,166.492z"/> </g> </g><g> <g> <path d="M220.761,342.991c-0.13-0.63-0.32-1.26-0.57-1.87c-0.25-0.6-0.56-1.18-0.92-1.72c-0.36-0.55-0.78-1.06-1.24-1.52 c-0.46-0.46-0.98-0.88-1.52-1.25c-0.55-0.36-1.13-0.67-1.73-0.92s-1.23-0.44-1.87-0.57c-1.29-0.26-2.62-0.26-3.91,0 c-0.64,0.13-1.27,0.32-1.87,0.57c-0.6,0.25-1.18,0.56-1.73,0.92c-0.54,0.37-1.06,0.79-1.52,1.25c-0.46,0.46-0.87,0.97-1.24,1.52 c-0.36,0.54-0.67,1.12-0.92,1.72c-0.25,0.61-0.44,1.24-0.57,1.87c-0.13,0.65-0.19,1.31-0.19,1.96c0,2.63,1.06,5.21,2.92,7.07 c0.46,0.46,0.98,0.88,1.52,1.24c0.55,0.36,1.13,0.67,1.73,0.92c0.6,0.25,1.23,0.45,1.87,0.57c0.65,0.13,1.3,0.2,1.96,0.2 c0.649,0,1.31-0.07,1.95-0.2c0.64-0.12,1.27-0.32,1.87-0.57s1.18-0.56,1.73-0.92c0.54-0.36,1.06-0.78,1.52-1.24 c1.86-1.86,2.93-4.44,2.93-7.07C220.961,344.301,220.891,343.641,220.761,342.991z"/> </g> </g><g> <g> <path d="M390.169,161.812c1.711-6.26,2.558-13.006,2.525-20.169c-0.121-26.464-21.83-47.994-48.392-47.994h-0.85 c2.127-5.063,3.304-10.619,3.304-16.446c0-18.835-12.292-34.854-29.275-40.456c5.354-8.478,13.772-14.597,23.614-17.039 c5.36-1.33,8.628-6.753,7.297-12.114c-1.33-5.36-6.755-8.63-12.114-7.297c-16.866,4.185-30.968,15.513-38.69,31.079l-2.043,4.118 c-15.21,3.14-27.481,14.416-32.046,29.059c-9.163-10.175-16.554-21.775-21.556-33.895c-1.999-4.842-7.397-7.32-12.37-5.684 c-12.118,3.988-22.944,11.217-31.308,20.905c-11.603,13.439-17.583,30.366-17.139,47.769h-12.616 c-13.1,0-25.939,5.389-35.225,14.785c-9.164,9.273-14.128,21.414-13.978,34.185c0.076,6.497,1.442,12.816,3.968,18.643 c-18.7,6.704-32.126,24.62-32.126,45.574c0,15.798,7.609,29.851,19.354,38.689c0.009,0.288,0.029,0.576,0.063,0.864L140.57,503.16 c0.589,5.04,4.859,8.839,9.933,8.839h210.993c5.074,0,9.344-3.8,9.933-8.839l30.003-256.773c0.034-0.288,0.054-0.577,0.063-0.864 c11.745-8.838,19.354-22.891,19.354-38.688C420.848,186.431,408.117,168.907,390.169,161.812z M304.168,54.616 c12.455,0,22.587,10.132,22.587,22.587S316.622,99.79,304.168,99.79c-12.454,0-22.587-10.133-22.587-22.587 S291.714,54.616,304.168,54.616z M380.263,255.227L352.597,492H159.403l-27.666-236.773h24.617l19.793,207.722 c0.489,5.132,4.8,9.051,9.955,9.051h139.796c5.155,0,9.466-3.919,9.955-9.051l19.793-207.722L380.263,255.227L380.263,255.227z M250.956,354.95h75.098L316.806,452H195.194l-13.761-144.414h149.134l-2.607,27.364h-77.004c-5.523,0-10,4.477-10,10 C240.956,350.473,245.433,354.95,250.956,354.95z M179.527,287.586l-3.083-32.358h159.111l-3.082,32.358H179.527z M372.458,235.227H139.543c-15.655,0-28.392-12.737-28.392-28.393c0-15.144,11.952-27.583,26.892-28.353 c0.67,0.139,1.352,0.208,2.034,0.208c0.741,0,1.482-0.083,2.209-0.247h109.357c5.523,0,10-4.477,10-10c0-5.523-4.477-10-10-10 H144.53c-3.324-4.677-5.154-10.248-5.222-16.061c-0.087-7.385,2.827-14.45,8.205-19.891c5.554-5.621,13.208-8.844,20.999-8.844 h23.74c2.988,0,5.819-1.336,7.718-3.642c1.9-2.306,2.669-5.341,2.097-8.273c-2.999-15.371,1.134-30.965,11.339-42.785 c4.04-4.68,8.879-8.558,14.261-11.463c6.692,13.271,15.612,25.468,26.609,36.364l0.374,0.369c3.088,3.037,6.397,5.895,9.868,8.523 c6.221,15.82,21.65,27.048,39.652,27.048c8.054,0,15.592-2.247,22.022-6.147c0.365,0.004,0.73,0.006,1.093,0.006h17.019 c15.584,0,28.321,12.599,28.392,28.086c0.028,6.101-0.772,11.696-2.386,16.71H345.01c-5.523,0-10,4.477-10,10 c0,5.523,4.477,10,10,10h27.53c15.61,0.044,28.31,12.781,28.31,28.392C400.849,222.49,388.113,235.227,372.458,235.227z"/> </g> </g></symbol><symbol id="food" viewBox="0 0 511.998 511.998"><title>food</title><g> <g> <path d="M368.718,363.039c-0.12-0.64-0.32-1.27-0.57-1.87c-0.25-0.61-0.56-1.19-0.92-1.73c-0.36-0.55-0.78-1.06-1.24-1.52 c-2.32-2.32-5.77-3.39-9.02-2.73c-0.64,0.13-1.27,0.32-1.87,0.57c-0.61,0.25-1.19,0.56-1.73,0.92c-0.55,0.36-1.06,0.78-1.52,1.24 c-0.46,0.46-0.88,0.97-1.24,1.52c-0.36,0.54-0.67,1.12-0.92,1.73c-0.25,0.6-0.44,1.23-0.57,1.87s-0.2,1.3-0.2,1.95 c0,0.65,0.07,1.31,0.2,1.96c0.13,0.63,0.32,1.26,0.57,1.87c0.25,0.6,0.56,1.18,0.92,1.72c0.36,0.55,0.78,1.06,1.24,1.52 c0.46,0.46,0.97,0.88,1.52,1.25c0.54,0.36,1.12,0.67,1.73,0.92c0.6,0.25,1.23,0.44,1.87,0.57s1.3,0.19,1.95,0.19 c2.63,0,5.21-1.06,7.07-2.93c0.46-0.46,0.88-0.97,1.24-1.52c0.36-0.54,0.67-1.12,0.92-1.72c0.25-0.61,0.45-1.24,0.57-1.87 c0.13-0.65,0.2-1.31,0.2-1.96S368.848,363.679,368.718,363.039z"/> </g> </g><g> <g> <path d="M419.688,220.807c-1.897-2.128-4.613-3.345-7.464-3.345H400.55V91.639c0-5.523-4.477-10-10-10h-34.851V43.246 c0-5.523-4.477-10-10-10h-44.85c-5.523,0-10,4.477-10,10v65.464h-24.85V54.025c0-5.523-4.477-10-10-10h-34.851V10 c0-5.523-4.477-10-10-10h-44.851c-5.523,0-10,4.477-10,10v87.024h-34.851c-5.523,0-10,4.477-10,10v110.438H99.773 c-2.851,0-5.567,1.217-7.464,3.345c-1.897,2.128-2.796,4.965-2.47,7.797l31.583,274.537c0.581,5.047,4.854,8.857,9.935,8.857 h249.286c5.081,0,9.354-3.81,9.934-8.857l31.583-274.537C422.484,225.772,421.585,222.935,419.688,220.807z M355.7,101.639h24.851 v115.823H355.7V101.639z M310.849,53.246H335.7v166.642c-1.75,1.508-2.98,3.62-3.355,6.05l-7.295,47.273h-14.201V53.246z M265.999,128.71h24.851v144.5h-24.851V128.71z M221.148,64.025h24.851V273.21h-24.851V64.025z M176.297,20h24.851v253.21h-14.201 l-7.295-47.273c-0.375-2.429-1.605-4.542-3.355-6.05V20z M131.447,117.024h24.851v100.438h-24.851V117.024z M176.644,491.999 l4.2-36.518h150.309l4.2,36.518H176.644z M371.726,491.999h-16.241l-5.481-47.66c-0.581-5.047-4.854-8.857-9.935-8.857H171.928 c-5.081,0-9.354,3.81-9.935,8.857l-5.481,47.66h-16.241l-13.459-117.006h192.044c5.523,0,10-4.477,10-10s-4.477-10-10-10H124.512 l-9.487-82.477h16.109l7.294,47.275c0.752,4.877,4.949,8.475,9.883,8.475h215.375c4.934,0,9.131-3.599,9.883-8.475l7.294-47.275 h16.109L371.726,491.999z M399.273,252.516h-26.985c-4.934,0-9.13,3.599-9.883,8.475l-7.294,47.275H156.886l-7.294-47.275 c-0.753-4.877-4.949-8.475-9.883-8.475h-26.985l-1.731-15.053h50.197l7.296,47.272c0.425,2.754,1.949,5.101,4.084,6.622 c0.02,0.014,0.04,0.028,0.06,0.042c0.04,0.028,0.081,0.056,0.121,0.084c0.032,0.022,0.064,0.043,0.097,0.065 c0.027,0.018,0.055,0.036,0.082,0.054c0.043,0.028,0.086,0.055,0.129,0.082c0.016,0.01,0.032,0.02,0.048,0.03 c0.051,0.032,0.103,0.063,0.155,0.094c0.008,0.005,0.015,0.009,0.023,0.014c1.053,0.624,2.23,1.059,3.486,1.261 c0.005,0.001,0.011,0.002,0.017,0.003c0.061,0.01,0.122,0.019,0.184,0.027c0.019,0.003,0.037,0.005,0.056,0.008 c0.054,0.007,0.108,0.014,0.162,0.02c0.028,0.003,0.055,0.007,0.083,0.01c0.048,0.005,0.096,0.01,0.145,0.015 c0.034,0.003,0.067,0.006,0.101,0.009c0.044,0.004,0.088,0.007,0.132,0.011c0.039,0.003,0.079,0.005,0.119,0.007 c0.04,0.002,0.08,0.005,0.12,0.007c0.05,0.002,0.1,0.004,0.15,0.006c0.029,0.001,0.059,0.002,0.088,0.003 c0.082,0.002,0.164,0.003,0.246,0.003h155.254c0.082,0,0.164-0.001,0.246-0.003c0.029-0.001,0.059-0.002,0.088-0.003 c0.05-0.002,0.1-0.003,0.15-0.006c0.04-0.002,0.08-0.004,0.12-0.007c0.04-0.002,0.079-0.005,0.119-0.007 c0.044-0.003,0.088-0.007,0.132-0.011c0.034-0.003,0.067-0.006,0.101-0.009c0.048-0.005,0.097-0.01,0.145-0.015 c0.028-0.003,0.055-0.006,0.083-0.01c0.054-0.006,0.108-0.013,0.162-0.02c0.018-0.003,0.037-0.005,0.056-0.008 c0.061-0.009,0.123-0.018,0.184-0.027c0.006-0.001,0.011-0.002,0.017-0.003c1.256-0.202,2.433-0.638,3.486-1.261 c0.008-0.004,0.015-0.009,0.023-0.014c0.052-0.031,0.103-0.062,0.155-0.094c0.016-0.01,0.032-0.02,0.048-0.03 c0.043-0.027,0.086-0.055,0.129-0.082c0.028-0.018,0.055-0.036,0.082-0.054c0.032-0.022,0.065-0.043,0.097-0.065 c0.041-0.028,0.081-0.056,0.121-0.084c0.02-0.014,0.04-0.028,0.06-0.042c2.135-1.521,3.659-3.867,4.084-6.622l7.296-47.272h50.197 L399.273,252.516z"/> </g> </g></symbol><symbol id="burger" viewBox="0 0 511.999 511.999"><title>burger</title><g> <g> <path d="M413.949,155.583c-0.46-0.46-0.97-0.87-1.52-1.24c-0.54-0.36-1.12-0.67-1.72-0.92c-0.61-0.25-1.24-0.44-1.87-0.57 c-3.25-0.66-6.701,0.41-9.03,2.73c-1.86,1.87-2.93,4.44-2.93,7.07c0,0.66,0.07,1.31,0.2,1.96c0.13,0.64,0.32,1.27,0.57,1.87 c0.25,0.6,0.56,1.18,0.92,1.73c0.36,0.54,0.779,1.05,1.24,1.52c1.86,1.86,4.44,2.93,7.07,2.93c0.65,0,1.31-0.07,1.96-0.2 c0.63-0.13,1.26-0.32,1.87-0.57c0.6-0.25,1.18-0.56,1.72-0.92c0.55-0.37,1.06-0.78,1.52-1.24c0.47-0.47,0.88-0.98,1.25-1.52 c0.361-0.55,0.67-1.13,0.92-1.73c0.25-0.6,0.44-1.23,0.57-1.87c0.13-0.65,0.19-1.3,0.19-1.96 C416.879,160.025,415.819,157.444,413.949,155.583z"/> </g> </g><g> <g> <path d="M115.289,385.873c-0.12-0.64-0.32-1.27-0.57-1.87c-0.25-0.6-0.55-1.18-0.91-1.73c-0.37-0.54-0.79-1.06-1.25-1.52 c-0.46-0.46-0.97-0.88-1.52-1.24c-0.54-0.36-1.12-0.67-1.72-0.92c-0.61-0.25-1.24-0.44-1.88-0.57c-1.29-0.26-2.61-0.26-3.9,0 c-0.64,0.13-1.27,0.32-1.87,0.57c-0.61,0.25-1.19,0.56-1.73,0.92c-0.55,0.36-1.06,0.78-1.52,1.24c-0.46,0.46-0.88,0.98-1.24,1.52 c-0.36,0.55-0.67,1.13-0.92,1.73c-0.25,0.6-0.45,1.23-0.57,1.87c-0.13,0.651-0.2,1.3-0.2,1.96c0,0.65,0.07,1.3,0.2,1.95 c0.12,0.64,0.32,1.27,0.57,1.87c0.25,0.6,0.56,1.18,0.92,1.73c0.36,0.54,0.78,1.06,1.24,1.52c0.46,0.46,0.97,0.88,1.52,1.24 c0.54,0.36,1.12,0.67,1.73,0.92c0.6,0.25,1.23,0.44,1.87,0.57s1.3,0.2,1.95,0.2c0.65,0,1.31-0.07,1.95-0.2 c0.64-0.13,1.27-0.32,1.88-0.57c0.6-0.25,1.18-0.56,1.72-0.92c0.55-0.36,1.059-0.78,1.52-1.24c0.46-0.46,0.88-0.98,1.25-1.52 c0.36-0.55,0.66-1.13,0.91-1.73c0.25-0.6,0.45-1.23,0.57-1.87c0.13-0.65,0.2-1.3,0.2-1.95 C115.489,387.173,115.419,386.523,115.289,385.873z"/> </g> </g><g> <g> <path d="M511.999,222.726c0-14.215-9.228-26.315-22.007-30.624c-1.628-74.155-62.456-133.978-136.994-133.978H159.002 c-74.538,0-135.366,59.823-136.994,133.978C9.228,196.411,0,208.51,0,222.726c0,5.429,1.386,10.626,3.847,15.203 c-0.528,2.767-0.795,5.585-0.795,8.427v0.708c0,14.06,6.519,26.625,16.693,34.833c-10.178,8.275-16.693,20.891-16.693,35.001 c0,15.114,7.475,28.515,18.921,36.702v26.668c0,40.588,33.021,73.608,73.608,73.608h320.836c40.588,0,73.608-33.021,73.608-73.608 v-26.668c11.446-8.186,18.921-21.587,18.921-36.702c0-13.852-6.354-26.385-16.361-34.702c9.983-8.212,16.361-20.656,16.361-34.562 v-0.708c0-2.985-0.294-5.944-0.877-8.845C510.582,233.466,511.999,228.214,511.999,222.726z M44.033,173.229h322.441 c5.523,0,10-4.477,10-10c0-5.523-4.477-10-10-10H49.737c16.896-43.883,59.503-75.106,109.265-75.106h193.996 c62.942,0,114.438,49.953,116.934,112.295H42.068C42.302,184.57,42.968,178.83,44.033,173.229z M23.052,316.896 c0-13.837,11.257-25.094,25.094-25.094h117.298l55.346,50.188H48.146C34.309,341.99,23.052,330.734,23.052,316.896z M24.028,253.951c0.422,0.111,0.847,0.215,1.275,0.309c7.421,1.634,14.68,8.002,22.365,14.744 c1.045,0.917,2.113,1.854,3.206,2.799h-3.081C36.54,271.802,27.019,264.252,24.028,253.951z M332.755,343.703l57.233-51.899 l49.904,0.57l-81.871,74.24L332.755,343.703z M340.616,377.829H295.12l17.467-15.839h10.563L340.616,377.829z M360.215,291.802 l-82.499,74.811l-82.499-74.811H360.215z M300.686,271.802c0.849-0.842,1.677-1.675,2.49-2.493 c9.531-9.587,17.059-17.16,32.89-17.16c15.832,0,23.359,7.573,32.89,17.162c0.812,0.817,1.64,1.65,2.489,2.491H300.686z M140.556,271.802c0.848-0.841,1.677-1.675,2.489-2.492c9.531-9.588,17.059-17.161,32.89-17.161 c15.83,0,23.358,7.573,32.888,17.16c0.813,0.818,1.641,1.651,2.49,2.493H140.556z M416.418,433.875H95.582 c-29.56,0-53.608-24.049-53.608-53.608v-18.275h200.872l17.467,15.839H145.897c-5.523,0-10,4.477-10,10s4.477,10,10,10H467.07 C459.782,418.789,439.828,433.875,416.418,433.875z M470.026,377.829h-94.6l17.467-15.839h77.133V377.829z M463.852,341.992 h-48.906l54.624-49.533c11.135,2.604,19.376,12.665,19.376,24.439C488.946,330.734,477.689,341.992,463.852,341.992z M461.124,271.802c0.087-0.076,0.175-0.151,0.262-0.227c0.034-0.029,0.067-0.058,0.101-0.087c0.114-0.099,0.228-0.199,0.342-0.298 c0.848-0.738,1.682-1.469,2.501-2.187c4.105-3.601,8.089-7.095,12.04-9.819c3.446-2.375,6.868-4.164,10.326-4.925 c0.12-0.027,0.24-0.054,0.359-0.081c0.013-0.003,0.027-0.006,0.04-0.01c0.106-0.025,0.212-0.05,0.317-0.076 c0.022-0.005,0.044-0.011,0.065-0.016c0.094-0.023,0.187-0.046,0.28-0.07c0.047-0.012,0.093-0.024,0.14-0.037 c0.065-0.017,0.131-0.034,0.196-0.052c0.017-0.003,0.032-0.007,0.048-0.012c-2.433,9.276-10.129,16.443-19.691,18.102 c-0.655-0.135-1.33-0.205-2.016-0.205H461.124z M482.395,234.729c-1.555,0.343-3.066,0.773-4.536,1.281 c-10.109,3.489-18.327,10.602-26.283,17.58c-0.145,0.127-0.289,0.254-0.434,0.381c-9.178,8.052-17.923,15.723-29.033,17.834 h-13.146c-11.249-1.93-17.833-8.552-25.823-16.591c-10.213-10.275-22.923-23.062-47.074-23.062 c-24.15,0-36.86,12.786-47.074,23.06c-7.992,8.04-14.576,14.663-25.829,16.593h-14.327c-11.253-1.93-17.837-8.553-25.829-16.593 c-10.213-10.274-22.923-23.06-47.072-23.06c-24.151,0-36.861,12.787-47.074,23.062c-7.991,8.039-14.574,14.661-25.824,16.591 h-7.065c-14.134,0-24.325-8.939-35.113-18.404c-9.248-8.112-18.81-16.501-31.252-19.241c-2.779-0.612-5.274-2.193-7.025-4.453 c-0.352-0.454-0.738-0.872-1.153-1.252c-0.914-1.727-1.428-3.684-1.428-5.727c-0.001-6.788,5.52-12.309,12.307-12.309h447.384 c6.787,0,12.308,5.521,12.308,12.308C492,228.456,487.961,233.503,482.395,234.729z"/> </g> </g></symbol></svg>